<?xml version="1.0" encoding="iso-8859-1"?>
<!-- Generator: Adobe Illustrator 16.0.0, SVG Export Plug-In . SVG Version: 6.00 Build 0)  -->
<!DOCTYPE svg PUBLIC "-//W3C//DTD SVG 1.1//EN" "http://www.w3.org/Graphics/SVG/1.1/DTD/svg11.dtd">
<svg version="1.1" id="Capa_1" xmlns="http://www.w3.org/2000/svg" xmlns:xlink="http://www.w3.org/1999/xlink" x="0px" y="0px"
	 width="45.057px" height="45.057px" viewBox="0 0 45.057 45.057" style="enable-background:new 0 0 45.057 45.057;"
	 xml:space="preserve">
<g>
	<g id="_x31_30_32_">
		<g>
			<path d="M20.326,16.588c6.417,0,5.835,0,12.253,0c1.611,0,1.611-2.5,0-2.5c-6.418,0-5.836,0-12.253,0
				C18.715,14.088,18.715,16.588,20.326,16.588z"/>
			<path d="M32.579,21.005c-6.418,0-5.836,0-12.253,0c-1.611,0-1.611,2.5,0,2.5c6.417,0,5.835,0,12.253,0
				C34.19,23.505,34.19,21.005,32.579,21.005z"/>
			<path d="M32.579,27.488c-6.418,0-5.836,0-12.253,0c-1.611,0-1.611,2.5,0,2.5c6.417,0,5.835,0,12.253,0
				C34.19,29.988,34.19,27.488,32.579,27.488z"/>
			<path d="M32.579,34.404c-6.418,0-5.836,0-12.253,0c-1.611,0-1.611,2.5,0,2.5c6.417,0,5.835,0,12.253,0
				C34.19,36.904,34.19,34.404,32.579,34.404z"/>
			<path d="M14.875,12.628l-0.355,0.513c-0.434,0.624-0.881,1.264-1.256,1.938c-0.006-0.006-0.012-0.013-0.018-0.02l-0.23-0.266
				c-0.436-0.498-1.277-0.333-1.549,0.267c-0.158,0.348-0.1,0.743,0.152,1.032l0.244,0.283c0.314,0.365,0.641,0.744,1.01,1.084
				c0.182,0.166,0.416,0.258,0.656,0.258c0.412,0,0.779-0.269,0.914-0.669c0.318-0.952,0.975-1.881,1.609-2.78
				c0.146-0.209,0.293-0.414,0.432-0.617c0.195-0.286,0.219-0.631,0.064-0.924C16.238,12.138,15.271,12.049,14.875,12.628z"/>
			<path d="M14.275,19.439l-0.355,0.514c-0.436,0.623-0.881,1.264-1.258,1.938c-0.006-0.007-0.012-0.014-0.016-0.02l-0.232-0.267
				c-0.434-0.497-1.275-0.331-1.547,0.267c-0.158,0.348-0.1,0.744,0.152,1.033l0.244,0.282c0.314,0.366,0.639,0.745,1.01,1.084
				c0.182,0.168,0.414,0.26,0.654,0.26c0.414,0,0.781-0.271,0.916-0.67c0.318-0.952,0.973-1.881,1.607-2.78
				c0.148-0.209,0.293-0.415,0.432-0.617c0.195-0.287,0.221-0.632,0.066-0.924C15.638,18.95,14.67,18.86,14.275,19.439z"/>
			<path d="M14.275,26.41l-0.355,0.514c-0.436,0.624-0.881,1.264-1.258,1.938c-0.006-0.006-0.01-0.013-0.016-0.02l-0.232-0.266
				c-0.434-0.498-1.275-0.332-1.547,0.267c-0.158,0.349-0.1,0.743,0.152,1.032l0.244,0.283c0.314,0.365,0.639,0.744,1.01,1.084
				c0.182,0.166,0.414,0.258,0.654,0.258c0.414,0,0.781-0.27,0.916-0.67c0.318-0.951,0.973-1.881,1.607-2.779
				c0.148-0.209,0.293-0.414,0.432-0.617c0.195-0.285,0.221-0.631,0.066-0.924C15.638,25.922,14.67,25.832,14.275,26.41z"/>
			<path d="M14.275,33.527l-0.355,0.514c-0.436,0.623-0.881,1.264-1.258,1.938c-0.006-0.007-0.012-0.014-0.016-0.02l-0.232-0.268
				c-0.434-0.498-1.275-0.332-1.547,0.268c-0.158,0.348-0.1,0.744,0.152,1.033l0.244,0.281c0.314,0.366,0.639,0.746,1.01,1.084
				c0.182,0.168,0.414,0.26,0.654,0.26c0.414,0,0.781-0.271,0.916-0.67c0.318-0.951,0.973-1.881,1.607-2.779
				c0.148-0.209,0.293-0.415,0.432-0.617c0.195-0.287,0.221-0.632,0.066-0.924C15.638,33.039,14.67,32.947,14.275,33.527z"/>
			<path d="M33.431,0H5.179v45.057h34.699V6.251L33.431,0z M36.878,42.056H8.179V3h23.707v4.76h4.992V42.056L36.878,42.056z"/>
		</g>
	</g>
</g>
</svg>
